<svg width="44" height="59" viewBox="0 0 44 59" fill="none" xmlns="http://www.w3.org/2000/svg">
<path d="M24.5897 32.1043C23.8793 32.8303 22.9397 33.1875 22.0001 33.1875C21.0605 33.1875 20.1232 32.8274 19.4082 32.1072L1.07488 13.6697C-0.35741 12.2292 -0.35741 9.89575 1.07488 8.45532C2.50717 7.01489 4.82748 7.01489 6.25977 8.45532L22.0001 24.2914L37.7404 8.4559C39.1727 7.01547 41.493 7.01547 42.9253 8.4559C44.3576 9.89633 44.3576 12.2298 42.9253 13.6703L24.5897 32.1043ZM6.25634 30.5832L22.0001 46.4164L37.7404 30.5832C39.1727 29.1428 41.493 29.1428 42.9253 30.5832C44.3576 32.0236 44.3576 34.3571 42.9253 35.7976L24.592 54.2351C23.8793 54.9553 22.9397 55.3125 22.0001 55.3125C21.0605 55.3125 20.1232 54.9524 19.4082 54.2322L1.07488 35.7947C-0.35741 34.3542 -0.35741 32.0208 1.07488 30.5803C2.50717 29.1399 4.82405 29.1428 6.25634 30.5832Z" fill="white" fill-opacity="0.75"/>
</svg>
