<svg width="26" height="26" viewBox="0 0 26 26" fill="none" xmlns="http://www.w3.org/2000/svg">
<path d="M13 5.6875C10.532 5.6875 8.53125 7.68828 8.53125 10.1562C8.53125 12.6242 10.532 14.625 13 14.625C15.468 14.625 17.4688 12.6242 17.4688 10.1562C17.4688 7.68828 15.468 5.6875 13 5.6875ZM13 12.1875C11.8798 12.1875 10.9688 11.276 10.9688 10.1562C10.9688 9.03398 11.8777 8.125 13 8.125C14.1223 8.125 15.0312 9.03602 15.0312 10.1562C15.0312 11.2785 14.1223 12.1875 13 12.1875ZM13 0C5.81953 0 0 5.81953 0 13C0 20.1805 5.81953 26 13 26C20.1805 26 26 20.1805 26 13C26 5.81953 20.1805 0 13 0ZM13 23.5625C10.627 23.5625 8.44188 22.7662 6.67773 21.4404C7.55625 19.7539 9.2625 18.6875 11.182 18.6875H14.8225C16.7395 18.6875 18.4438 19.7544 19.3258 21.4404C17.5602 22.7652 15.3715 23.5625 13 23.5625ZM21.1352 19.7285C19.7641 17.5855 17.4281 16.25 14.818 16.25H11.182C8.57391 16.25 6.23848 17.583 4.86484 19.7275C3.34953 17.9004 2.4375 15.5543 2.4375 13C2.4375 7.17539 7.1759 2.4375 13 2.4375C18.8241 2.4375 23.5625 7.1759 23.5625 13C23.5625 15.5543 22.6484 17.9004 21.1352 19.7285Z" fill="white" fill-opacity="0.75"/>
</svg>
