<svg width="49" height="54" viewBox="0 0 49 54" fill="none" xmlns="http://www.w3.org/2000/svg">
<path d="M16.3893 41.9133C16.3893 42.1242 16.1621 42.293 15.8756 42.293C15.5496 42.3246 15.3224 42.1559 15.3224 41.9133C15.3224 41.7023 15.5496 41.5336 15.8361 41.5336C16.1325 41.502 16.3893 41.6707 16.3893 41.9133ZM13.3169 41.4387C13.2478 41.6496 13.4454 41.8922 13.7417 41.9555C13.9986 42.0609 14.295 41.9555 14.3542 41.7445C14.4135 41.5336 14.2258 41.291 13.9294 41.1961C13.6726 41.1223 13.3861 41.2277 13.3169 41.4387ZM17.6835 41.2594C17.397 41.3332 17.1994 41.5336 17.229 41.7762C17.2587 41.9871 17.5155 42.1242 17.8119 42.0504C18.0984 41.9766 18.296 41.7762 18.2663 41.5652C18.2367 41.3648 17.97 41.2277 17.6835 41.2594ZM24.1839 0.84375C10.4817 0.84375 0 11.9496 0 26.5781C0 38.2746 6.89557 48.2836 16.745 51.8063C18.0095 52.0488 18.454 51.2156 18.454 50.5301C18.454 49.8762 18.4244 46.2691 18.4244 44.0543C18.4244 44.0543 11.5091 45.6363 10.0569 40.9113C10.0569 40.9113 8.93064 37.8422 7.31048 37.0512C7.31048 37.0512 5.04819 35.3953 7.46855 35.427C7.46855 35.427 9.92843 35.6379 11.2819 38.148C13.4454 42.2191 17.071 41.0484 18.4837 40.3523C18.7109 38.6648 19.353 37.4941 20.0643 36.798C14.5419 36.1441 8.97016 35.2898 8.97016 25.1437C8.97016 22.2434 9.72097 20.7879 11.3016 18.9316C11.0448 18.2461 10.205 15.4195 11.5585 11.7703C13.6232 11.0848 18.375 14.618 18.375 14.618C20.3508 14.0273 22.4748 13.7215 24.579 13.7215C26.6833 13.7215 28.8073 14.0273 30.7831 14.618C30.7831 14.618 35.5349 11.0742 37.5996 11.7703C38.953 15.4301 38.1133 18.2461 37.8565 18.9316C39.4371 20.7984 40.4052 22.2539 40.4052 25.1437C40.4052 35.3215 34.5865 36.1336 29.0641 36.798C29.973 37.6312 30.7436 39.2133 30.7436 41.6918C30.7436 45.2461 30.7139 49.6441 30.7139 50.509C30.7139 51.1945 31.1683 52.0277 32.423 51.7852C42.302 48.2836 49 38.2746 49 26.5781C49 11.9496 37.8861 0.84375 24.1839 0.84375ZM9.60242 37.2199C9.47399 37.3254 9.50363 37.568 9.67157 37.7684C9.82964 37.9371 10.0569 38.0109 10.1853 37.8738C10.3137 37.7684 10.2841 37.5258 10.1161 37.3254C9.95807 37.1566 9.73085 37.0828 9.60242 37.2199ZM8.53548 36.3656C8.46633 36.5027 8.56512 36.6715 8.7627 36.777C8.92077 36.8824 9.11835 36.8508 9.1875 36.7031C9.25665 36.566 9.15786 36.3973 8.96028 36.2918C8.7627 36.2285 8.60464 36.2602 8.53548 36.3656ZM11.7363 40.1203C11.5782 40.2574 11.6375 40.5738 11.8647 40.7742C12.0919 41.0168 12.3784 41.0484 12.5069 40.8797C12.6353 40.7426 12.576 40.4262 12.3784 40.2258C12.1611 39.9832 11.8647 39.9516 11.7363 40.1203ZM10.6101 38.5699C10.452 38.6754 10.452 38.9496 10.6101 39.1922C10.7681 39.4348 11.0349 39.5402 11.1633 39.4348C11.3214 39.2977 11.3214 39.0234 11.1633 38.7809C11.025 38.5383 10.7681 38.4328 10.6101 38.5699Z" fill="white" fill-opacity="0.75"/>
</svg>
